<?xml version="1.0" encoding="UTF-8"?>
<svg xmlns="http://www.w3.org/2000/svg" width="76" height="70" viewBox="0 0 76 70" fill="none">
  <path d="M43.467 70C33.963 70 24.4296 70 14.9256 70C12.3069 70 11.4242 69.1172 11.3947 66.4691C11.277 49.1971 11.1888 31.9546 11.0711 14.6826C11.0416 11.7402 11.8655 10.9457 14.8079 10.9163C33.7865 10.7986 52.7651 10.6809 71.7436 10.5632C74.6566 10.5338 75.4805 11.3871 75.5099 14.3295C75.6276 31.4838 75.7159 48.6381 75.8336 65.8217C75.863 68.823 75.0391 69.6469 72.0084 69.6469C62.5044 69.6469 52.971 69.6469 43.467 69.6469C43.467 69.7646 43.467 69.8823 43.467 70ZM60.1211 40.2816C58.9735 37.7511 58.9735 37.7511 60.7684 35.9268C60.8273 35.868 60.9155 35.7797 60.9744 35.7209C62.0925 34.5439 62.0925 34.0143 61.0038 32.8667C59.8269 31.6603 58.6499 30.5128 57.4729 29.3358C54.913 26.7759 54.9719 26.4228 52.2354 29.277C51.9412 29.6006 51.441 29.9832 51.0585 29.9537C49.499 29.8655 48.7928 28.9827 48.7928 27.4527C48.7928 27.0113 48.7634 26.57 48.7928 26.1286C48.8811 24.7162 48.2043 24.1572 46.8508 24.1866C45.1736 24.216 43.5259 24.216 41.8487 24.1866C37.7293 24.1278 38.0824 24.3337 38.0824 27.8352C38.0824 28.2766 38.0236 28.8945 37.7293 29.1299C36.5818 30.1597 35.4342 30.0714 34.3456 29.0122C33.9925 28.6591 33.6394 28.3354 33.3157 27.9823C32.4624 27.0996 31.6385 27.0996 30.7852 27.9823C29.5788 29.1887 28.3725 30.4245 27.1366 31.6309C24.4885 34.2791 24.1648 34.1908 27.1072 36.9567C27.6663 37.4863 27.784 37.9277 27.5192 38.7221C27.1072 39.9579 26.4893 40.6347 25.1064 40.3404C24.6356 40.2522 24.1354 40.3404 23.6352 40.3404C22.4876 40.3404 21.9286 40.8995 21.9286 42.0765C21.9286 43.8419 21.9286 45.6074 21.9286 47.3728C21.9286 50.7566 21.4578 51.2274 25.6066 51.0803C26.3716 51.0508 26.813 51.2274 27.1955 51.9924C27.8134 53.2282 27.7251 54.1404 26.5776 54.9642C26.2539 55.1702 26.0185 55.5233 25.7243 55.7881C24.7827 56.6708 24.7827 57.5241 25.6949 58.4363C26.9307 59.6427 28.1371 60.8491 29.3435 62.0849C31.9622 64.7036 31.9622 64.7036 34.5809 62.1437C34.9046 61.8201 35.3754 61.4375 35.7285 61.467C37.3174 61.5847 38.0236 62.4674 38.0236 64.1151C38.0236 64.5565 38.053 64.9979 38.0236 65.4392C37.9647 66.675 38.5532 67.2341 39.789 67.2047C41.6133 67.1753 43.4082 67.2047 45.2325 67.2047C48.6751 67.2047 48.6751 67.2047 48.7045 63.7621C48.7045 63.2618 48.734 62.5851 49.0576 62.2908C50.1169 61.261 51.3821 61.3787 52.412 62.4085C52.7651 62.7616 53.1181 63.0853 53.4418 63.4384C54.354 64.4094 55.1778 64.3211 56.0606 63.409C57.1787 62.232 58.3556 61.1139 59.4738 59.9663C62.0631 57.3476 62.7693 57.4359 59.5915 54.4052C59.2972 54.1404 59.0324 53.5519 59.1207 53.1988C59.4443 51.8453 60.0034 50.6977 61.7983 51.1097C62.2102 51.1979 62.681 51.1097 63.1224 51.1097C64.2405 51.0803 64.829 50.5506 64.829 49.3737C64.829 46.9315 64.829 44.4598 64.829 42.0176C64.829 40.9584 64.2699 40.3993 63.1812 40.3699C62.2102 40.2816 61.1509 40.2816 60.1211 40.2816ZM72.8912 18.8903C53.177 18.8903 33.6394 18.8903 14.0723 18.8903C14.0723 19.773 14.0723 20.5674 14.0723 21.3913C33.7276 21.3913 53.2653 21.3913 72.8912 21.3913C72.8912 20.538 72.8912 19.773 72.8912 18.8903ZM14.0429 25.6284C14.0429 26.5405 14.0429 27.3056 14.0429 28.1C17.6032 28.1 21.1047 28.1 24.5767 28.1C24.5767 27.2173 24.5767 26.4523 24.5767 25.6284C21.0753 25.6284 17.6032 25.6284 14.0429 25.6284ZM21.9286 30.9541C19.251 30.9541 16.6911 30.9541 14.0723 30.9541C14.0723 31.8369 14.0723 32.6313 14.0723 33.4552C16.7499 33.4552 19.3098 33.4552 21.9286 33.4552C21.9286 32.6019 21.9286 31.8663 21.9286 30.9541ZM72.8617 64.4977C70.1841 64.4977 67.6242 64.4977 65.0349 64.4977C65.0349 65.3804 65.0349 66.1748 65.0349 66.9987C67.6831 66.9987 70.243 66.9987 72.8617 66.9987C72.8617 66.1748 72.8617 65.4098 72.8617 64.4977ZM14.1018 13.5351C14.1018 14.4766 14.1018 15.2711 14.1018 16.0655C14.9845 16.0655 15.7495 16.0655 16.544 16.0655C16.544 15.1828 16.544 14.3884 16.544 13.5351C15.6907 13.5351 14.9256 13.5351 14.1018 13.5351ZM19.4275 13.5351C19.4275 14.4178 19.4275 15.2122 19.4275 16.0361C20.3102 16.0361 21.1047 16.0361 21.8991 16.0361C21.8991 15.124 21.8991 14.3295 21.8991 13.5351C20.987 13.5351 20.222 13.5351 19.4275 13.5351ZM24.7533 13.5645C24.7533 14.4472 24.7533 15.2417 24.7533 16.0361C25.636 16.0361 26.4305 16.0361 27.2249 16.0361C27.2249 15.124 27.2249 14.3295 27.2249 13.5645C26.3422 13.5645 25.5772 13.5645 24.7533 13.5645Z" fill="#3EB7FD"></path>
  <path d="M64.9462 8.09163C64.1517 8.09163 63.5338 8.09163 62.9159 8.09163C46.9386 8.09163 30.9613 8.09163 14.9546 8.09163C13.1303 8.09163 11.4237 8.32703 10.0996 9.70996C8.80496 11.034 8.54014 12.6818 8.54014 14.4767C8.54014 28.6885 8.54014 42.9004 8.54014 57.1417C8.54014 57.7301 8.54014 58.3186 8.54014 59.0248C6.50988 59.0248 4.56789 59.1425 2.62589 58.9954C1.39008 58.8777 0.683901 57.9067 0.53678 56.6709C0.477932 56.2295 0.507356 55.7881 0.507356 55.3468C0.507356 38.1631 0.507356 20.9794 0.507356 3.82514C0.507356 0.794451 1.30181 0 4.36192 0C23.2816 0 42.2013 0 61.1505 0C64.1518 0 64.9756 0.823876 64.9756 3.85456C64.9462 5.20807 64.9462 6.56158 64.9462 8.09163ZM3.27322 2.76587C3.27322 3.67802 3.27322 4.44304 3.27322 5.29634C4.12652 5.29634 4.92098 5.29634 5.77428 5.29634C5.77428 4.44304 5.77428 3.64859 5.77428 2.76587C4.92098 2.76587 4.15595 2.76587 3.27322 2.76587ZM11.0412 5.29634C11.5708 2.64817 11.2766 2.38335 8.65784 2.88356C8.65784 3.64859 8.65784 4.44304 8.65784 5.29634C9.54056 5.29634 10.3056 5.29634 11.0412 5.29634ZM16.5435 2.79529C15.6608 2.79529 14.8663 2.79529 14.0425 2.79529C14.0425 3.67802 14.0425 4.44304 14.0425 5.26692C14.9252 5.26692 15.7196 5.26692 16.5435 5.26692C16.5435 4.38419 16.5435 3.61917 16.5435 2.79529Z" fill="#3EB7FD"></path>
  <path d="M32.3159 30.6893C33.6694 32.4253 35.0229 33.4257 37.8771 32.2193C40.7018 31.0423 41.1137 29.4534 40.7018 26.9524C42.6438 26.9524 44.3209 26.9524 45.9393 26.9524C46.7043 28.4824 45.0566 30.6598 47.6165 31.572C50.2058 32.4547 52.8245 34.5144 54.5311 30.6304C55.8846 31.9839 57.091 33.2197 58.3857 34.485C57.9443 35.8091 55.1785 36.1916 56.3554 38.6043C56.9733 39.8696 57.1499 41.5762 58.1209 42.4001C59.0036 43.1357 60.6513 42.9885 62.2697 43.2534C62.2697 43.9007 62.2697 44.754 62.2697 45.6073C62.2697 46.4312 62.2697 47.255 62.2697 48.3437C59.9157 48.226 58.0326 48.1966 56.9145 51.139C55.8846 53.9049 56.3554 55.4349 58.4151 56.759C57.091 58.0831 55.8552 59.2895 54.5605 60.5842C53.3247 60.1428 52.9128 57.4064 50.5294 58.5539C48.1167 59.7309 44.7329 60.0545 46.3218 64.321C44.3798 64.321 42.7026 64.321 40.7901 64.321C40.8783 62.1437 40.9078 60.3194 37.9653 59.1424C35.1406 58.0243 33.6988 58.6716 32.3453 60.643C31.0507 59.3189 29.8443 58.1125 28.5496 56.7885C28.9616 55.5526 31.6392 55.1701 30.5799 52.8456C29.9914 51.551 29.8149 49.8738 28.8439 49.0499C27.9317 48.2555 26.2545 48.3437 24.7539 47.9906C24.7539 46.5489 24.7539 44.8717 24.7539 42.9591C26.9607 43.0474 28.8439 43.1651 29.962 40.1638C30.9918 37.398 30.4916 35.8973 28.3731 34.485C29.756 33.1903 30.9918 31.9839 32.3159 30.6893ZM43.3794 55.023C48.6169 55.0524 52.8539 50.8742 52.8539 45.6661C52.8539 40.5463 48.6463 36.3387 43.5265 36.2798C38.3773 36.221 34.0519 40.4875 34.0814 45.6956C34.0814 50.8154 38.2302 54.9936 43.3794 55.023Z" fill="#F670C7"></path>
  <path d="M43.5235 52.3455C39.8161 52.3749 36.7266 49.3442 36.7266 45.6662C36.7266 42.0176 39.6984 39.0458 43.3764 38.9869C47.0839 38.9281 50.1734 41.9882 50.1734 45.6662C50.1734 49.2854 47.1721 52.316 43.5235 52.3455Z" fill="#F670C7"></path>
</svg>
