<?xml version="1.0" encoding="UTF-8"?>
<svg xmlns="http://www.w3.org/2000/svg" width="64" height="70" viewBox="0 0 64 70" fill="none">
  <path d="M0.855866 48.9809C0.828533 47.0676 1.53919 45.4549 2.74185 43.9789C3.04251 43.6236 3.23384 42.9403 3.12451 42.4756C1.92186 37.4736 1.92186 32.4717 3.12451 27.4697C3.23384 27.0597 3.06984 26.4037 2.76918 26.0758C0.582535 23.4791 0.172539 20.1991 1.78519 17.4658C3.37051 14.7599 6.37715 13.5025 9.65711 14.1039C10.1218 14.1859 10.8324 13.9672 11.1604 13.6392C14.8777 10.1406 19.1417 7.62593 24.0616 6.23194C24.5263 6.09527 25.0183 5.57595 25.1823 5.13862C26.3303 1.96798 28.9269 0 32.0976 0C35.2409 0 37.8648 1.96798 38.9855 5.05662C39.1495 5.54861 39.7235 6.06794 40.2155 6.20461C45.0808 7.62593 49.3174 10.0859 52.98 13.5572C53.3627 13.9125 54.1007 14.1039 54.62 14.0219C57.736 13.4479 60.7973 14.7325 62.3553 17.4112C63.9133 20.0625 63.6126 23.4518 61.5353 25.8024C60.9886 26.4037 60.8246 26.8957 61.0433 27.7157C62.2733 32.581 62.2733 37.4463 61.0433 42.3116C60.852 43.0769 60.9886 43.5142 61.4806 44.1156C63.6399 46.5209 63.9406 49.9102 62.3279 52.6162C60.7426 55.2675 57.736 56.4975 54.5654 55.9508C54.0734 55.8688 53.308 56.0875 52.9254 56.4428C49.2354 59.9141 45.0261 62.3741 40.1608 63.7954C39.6688 63.9321 39.1222 64.5061 38.9582 64.9707C37.8375 68.032 35.1862 70 32.0156 70C28.9269 69.9727 26.221 68.0047 25.2643 64.9707C25.0183 64.2054 24.6083 63.9047 23.8976 63.7134C19.087 62.3467 14.8777 59.8868 11.2151 56.4428C10.8051 56.0601 10.0124 55.8688 9.46578 55.9508C5.01049 56.8255 0.883199 53.5182 0.855866 48.9809ZM56.8887 41.6829C58.1733 38.0476 58.146 31.3784 56.834 28.2624C53.9094 28.3444 51.504 27.2784 50.0007 24.6544C48.4701 22.0031 48.8254 19.3518 50.3561 16.7825C46.9941 13.5025 43.1675 11.2886 38.7122 10.1132C37.2362 12.7919 35.1042 14.3225 32.0976 14.3225C29.0089 14.3225 26.9043 12.6825 25.483 10.1132C20.9183 11.3159 15.7797 14.3499 13.9484 16.9192C17.283 22.4405 13.3744 28.5904 7.22447 28.3171C6.07648 32.5537 6.04915 36.845 7.11514 41.1089C7.19714 41.4096 7.9078 41.7103 8.34513 41.7376C11.6798 41.9836 14.3037 44.1702 15.0144 47.4229C15.4791 49.4729 14.9324 51.3862 13.8391 53.1902C17.1464 56.4701 20.973 58.6841 25.401 59.8594C29.6376 54.1195 34.3389 54.1195 38.8215 59.8594C43.2221 58.6294 47.0761 56.4428 50.3014 53.1902C46.9394 47.7509 50.6021 41.4643 56.8887 41.6829Z" fill="#3EB7FD"></path>
  <path d="M17.6098 29.0002C21.7645 31.4056 25.6731 33.6469 29.5544 35.9155C29.8004 36.0522 30.0464 36.4895 30.0464 36.7902C30.0737 41.2181 30.0464 45.6188 30.0191 50.0467C30.0191 50.1287 29.9371 50.1834 29.8004 50.3747C27.7777 49.1994 25.7278 48.0241 23.7051 46.8487C21.9285 45.8374 20.1518 44.8261 18.4025 43.7601C18.0745 43.5688 17.6918 43.1041 17.6645 42.7761C17.5825 38.2935 17.6098 33.7835 17.6098 29.0002Z" fill="#F670C7"></path>
  <path d="M34.1475 50.3203C34.1475 49.719 34.1475 49.1996 34.1475 48.6803C34.1475 44.9084 34.1201 41.1091 34.1748 37.3371C34.1748 36.8178 34.4208 36.0798 34.7761 35.8611C38.6027 33.5651 42.4567 31.3785 46.4747 29.0552C46.5293 29.4925 46.584 29.7658 46.584 30.0665C46.584 34.1665 46.6113 38.2664 46.5567 42.3664C46.5567 42.831 46.2833 43.4597 45.9553 43.6784C42.238 45.8923 38.4934 48.0243 34.7215 50.1836C34.6121 50.2656 34.4755 50.2656 34.1475 50.3203Z" fill="#F670C7"></path>
  <path d="M44.5333 25.4471C40.4333 27.8251 36.5793 30.0664 32.6981 32.2531C32.3974 32.4171 31.8781 32.4444 31.6047 32.2804C27.6961 30.0664 23.8148 27.7978 19.7148 25.4471C20.8082 24.8185 21.7375 24.2445 22.6668 23.7251C25.5368 22.0578 28.4068 20.3905 31.3041 18.7505C31.6594 18.5592 32.2334 18.3679 32.5067 18.5319C36.4427 20.7732 40.3513 23.0418 44.5333 25.4471Z" fill="#F670C7"></path>
</svg>
