<?xml version="1.0" encoding="UTF-8"?>
<svg xmlns="http://www.w3.org/2000/svg" width="71" height="71" viewBox="0 0 71 71" fill="none">
  <path d="M60.844 34.8065C59.9722 34.8065 59.3817 34.8065 58.6506 34.8065C59.0443 31.7414 56.2603 30.7853 54.7981 28.9012C54.2357 28.1982 52.914 27.5796 53.9545 26.511C55.0512 25.4143 55.6417 26.7922 56.3166 27.3828C56.9915 27.9733 57.5258 28.6763 58.4256 29.6605C58.4256 26.0892 58.4256 22.9679 58.4256 19.7059C56.7384 19.7059 54.9949 19.7059 53.1952 19.7059C53.1671 20.0715 53.139 20.3808 53.139 20.6901C53.1671 21.6743 52.6891 22.2649 51.7049 22.1524C50.102 21.9555 49.2584 22.6304 49.0053 24.177C48.9772 24.3458 48.8928 24.5426 48.7803 24.6832C48.1617 25.4706 48.4148 26.033 49.0897 26.7079C50.58 28.1982 50.5519 28.3388 49.0334 29.8573C48.2461 30.6447 47.4306 31.4321 46.6432 32.2476C45.884 33.0631 45.181 33.1193 44.3655 32.3319C43.8593 31.882 43.2125 31.1228 42.7345 31.2071C41.6659 31.3758 40.6255 31.9382 39.6131 32.4163C39.4163 32.5288 39.36 33.0631 39.3319 33.4286C39.1913 35.8188 39.1913 35.8188 36.773 36.1282C36.773 37.1405 36.773 38.2091 36.773 39.2776C36.773 40.29 36.773 41.3304 36.773 42.4271C36.0418 42.4271 35.3951 42.4271 34.6077 42.4271C34.6077 40.3743 34.6077 38.2934 34.6077 36.1563C34.1578 36.1 33.8485 36.0157 33.5391 36.0157C32.3862 36.0438 31.9644 35.4814 31.9363 34.3847C31.9082 33.7098 31.9363 32.7256 31.5426 32.4444C30.6428 31.8258 29.5179 31.4602 28.4494 31.2071C28.1119 31.1228 27.5495 31.7695 27.1558 32.1632C26.256 33.1193 25.4686 33.1474 24.5688 32.1351C23.7252 31.2071 22.7972 30.3354 21.8973 29.4355C21.1381 28.7325 21.0256 28.0014 21.7849 27.1578C22.2348 26.6516 22.9659 26.0049 22.9097 25.4987C22.7409 24.4301 22.1785 23.3897 21.7005 22.3773C21.588 22.1805 21.0256 22.1524 20.6882 22.1243C18.3261 21.9837 18.3261 21.9837 18.1855 19.6778C16.442 19.6778 14.6985 19.6778 12.8707 19.6778C12.8707 22.8554 12.8707 25.9767 12.8707 29.4074C13.8831 28.4232 14.7267 27.6077 15.5421 26.7922C16.1046 26.2298 16.7232 25.6955 17.4543 26.4829C18.073 27.1578 17.6512 27.7764 17.1169 28.3107C16.3576 29.07 15.5984 29.8292 14.8391 30.5885C13.0394 32.3882 13.0394 32.3882 12.6458 34.7503C12.0271 34.7503 11.4085 34.7503 10.593 34.7503C11.2116 32.6131 9.58064 31.6289 8.39959 30.4197C7.64034 29.6605 6.79673 28.9575 6.14997 28.1139C5.86876 27.7202 6.00937 26.9891 5.95312 26.4267C6.51553 26.4829 7.27478 26.3704 7.64034 26.6797C8.59643 27.4952 9.3838 28.4794 10.2274 29.4074C10.368 29.3512 10.5086 29.2668 10.6492 29.2106C10.6492 27.664 10.6492 26.0892 10.6492 24.5426C10.6492 22.7148 10.7055 20.887 10.6211 19.0591C10.5649 17.7656 11.1273 17.3157 12.3927 17.3438C14.3049 17.4 16.217 17.3719 18.1011 17.3719C18.4667 15.0098 18.4948 15.0379 20.8569 14.7849C21.2787 14.7286 21.6724 14.2506 21.9817 13.885C22.1504 13.6882 22.1223 13.3226 22.291 13.0976C23.219 11.776 22.994 10.6793 21.7567 9.63884C20.9975 9.02019 21.0818 8.28907 21.813 7.58606C22.7691 6.68621 23.697 5.75824 24.5969 4.80215C25.4686 3.84606 26.256 3.78982 27.2121 4.74591C27.6901 5.22395 28.1119 6.23628 29.1243 5.5614C30.2491 4.83027 32.2737 5.11147 31.9925 2.83373C31.8238 1.42771 32.4987 0.893427 33.9047 0.977788C35.1701 1.06215 36.4355 1.03403 37.7009 0.977788C38.8258 0.949667 39.3319 1.45583 39.36 2.55252C39.3882 3.19929 39.3038 4.15538 39.6694 4.38034C40.6255 4.99899 41.7503 5.47704 42.8751 5.67388C43.2969 5.75824 43.9155 4.99899 44.3936 4.54907C45.181 3.7617 45.884 3.7617 46.6713 4.57719C47.5712 5.53328 48.4991 6.46125 49.4552 7.3611C50.3832 8.23283 50.327 8.99207 49.4834 9.89192C49.0616 10.3418 48.4148 11.0167 48.4991 11.4385C48.7241 12.5071 49.2584 13.5476 49.7646 14.5318C49.877 14.7286 50.4394 14.7286 50.805 14.7567C53.0828 14.8692 53.0828 14.8692 53.2796 17.3157C55.2199 17.3157 57.1602 17.3719 59.1286 17.2876C60.4222 17.2313 60.8721 17.7937 60.844 19.031C60.7877 22.3773 60.8158 25.7518 60.8158 29.5199C61.9688 28.3951 62.8405 27.5234 63.7122 26.6516C64.2465 26.1173 64.837 25.7237 65.5119 26.4267C66.1868 27.1297 65.7369 27.6921 65.2026 28.2264C64.2746 29.1543 63.3748 30.1104 62.4187 31.0103C61.2658 32.0507 60.3378 33.0349 60.844 34.8065ZM42.1158 18.4405C42.0877 14.9255 39.1632 12.0291 35.6482 12.0572C32.1331 12.0853 29.2367 15.0098 29.2367 18.5249C29.2649 22.0399 32.2175 24.9644 35.7044 24.9363C39.2194 24.9082 42.144 21.9274 42.1158 18.4405Z" fill="#3EB7FD"></path>
  <path d="M35.7039 70.9693C32.5544 70.9693 29.433 70.9412 26.2836 70.9693C25.0463 70.9693 24.4557 70.5194 24.5682 69.2259C24.7932 66.4138 25.0181 63.6299 25.1587 60.8179C25.2431 59.1307 26.0586 58.0059 27.549 57.331C28.6175 56.8529 29.6861 56.403 30.7828 55.9812C31.7108 55.6156 32.3857 55.8406 32.8637 56.7967C33.5105 58.0902 34.2416 59.3556 34.9727 60.5929C35.5351 61.549 36.0132 61.5209 36.5475 60.5648C37.2786 59.2994 38.0097 58.0621 38.6565 56.7686C39.1064 55.8968 39.7251 55.6438 40.5968 55.9531C40.8218 56.0374 41.0467 56.1218 41.2717 56.178C44.7305 57.106 46.8114 58.9901 46.5583 62.9269C46.4177 64.9797 46.7833 67.0325 46.8957 69.0853C46.9801 70.7162 46.727 70.9412 45.0679 70.9412C42.0028 70.9693 38.8533 70.9693 35.7039 70.9693Z" fill="#F670C7"></path>
  <path d="M59.7187 63.2925C56.5411 63.2925 53.3635 63.2925 50.1578 63.2925C48.6674 63.2925 48.3862 62.9269 48.4987 61.4084C48.7237 58.6526 48.9486 55.8968 49.1455 53.141C49.2579 51.5944 49.9328 50.4415 51.3107 49.7947C52.4637 49.2604 53.6166 48.8105 54.7976 48.3325C55.7256 47.9388 56.4005 48.1919 56.8504 49.1198C57.4972 50.4134 58.2564 51.6507 58.9595 52.9161C59.4937 53.9003 60.028 53.8722 60.5623 52.9161C61.2934 51.6225 62.0246 50.3009 62.7276 48.9792C63.1494 48.1919 63.7399 47.9107 64.5835 48.2762C64.7241 48.3325 64.8366 48.3606 64.9772 48.3887C68.4641 49.2885 70.7137 51.0882 70.4607 55.1376C70.3201 57.2747 70.6575 59.44 70.8262 61.5771C70.9106 62.7863 70.4607 63.2925 69.2234 63.2643C66.102 63.2643 62.8963 63.2925 59.7187 63.2925Z" fill="#3EB7FD"></path>
  <path d="M11.7724 63.2925C8.62292 63.2925 5.50156 63.2925 2.35209 63.2925C0.63675 63.2925 0.411787 63.0675 0.524269 61.2959C0.692991 58.6245 0.946073 55.9812 1.14292 53.3098C1.28352 51.5382 2.21149 50.4134 3.78622 49.6541C7.94803 47.6013 7.91991 47.5732 10.1695 51.5382C10.6195 52.2974 11.2381 52.9723 11.7724 53.6753C12.3348 52.9723 12.8972 52.2974 13.4034 51.5663C13.6283 51.257 13.7689 50.9195 13.9658 50.5821C15.4843 47.8544 15.4843 47.8263 18.3525 49.0074C19.1399 49.3167 19.8992 49.6822 20.6303 50.104C21.6426 50.6665 22.1769 51.5101 22.2613 52.7192C22.4581 55.7 22.6831 58.7089 22.908 61.6896C22.9924 62.8425 22.4862 63.2925 21.3333 63.2925C18.1557 63.2925 14.95 63.2925 11.7724 63.2925Z" fill="#3EB7FD"></path>
  <path d="M64.8086 42.4832C64.6399 44.5922 63.8526 46.3919 62.1935 47.7417C60.928 48.7821 59.4939 49.0071 58.0035 48.276C55.4165 47.0106 53.898 43.1018 54.9103 40.4304C55.782 38.0683 58.2004 36.7467 60.6468 37.2528C63.2058 37.759 64.9211 39.9243 64.8086 42.4832Z" fill="#3EB7FD"></path>
  <path d="M16.8062 42.7082C16.6094 44.5642 15.8501 46.3639 14.191 47.7136C12.6725 48.9509 10.8166 49.0353 9.29809 47.798C7.30155 46.1951 6.34546 44.0861 6.65478 41.499C6.99223 38.7995 9.49493 36.8592 12.1101 37.1123C14.8659 37.4216 16.9187 39.7275 16.8062 42.7082Z" fill="#3EB7FD"></path>
  <path d="M40.7906 50.2726C40.7062 52.016 39.8626 53.9001 38.1473 55.3061C36.6007 56.5434 34.7728 56.5715 33.2543 55.3061C31.2859 53.6751 30.358 51.538 30.6392 48.979C30.9204 46.4201 33.3949 44.5079 36.0383 44.6766C38.7097 44.8453 40.7625 47.0668 40.7906 50.2726Z" fill="#F670C7"></path>
</svg>
