<?xml version="1.0" encoding="UTF-8"?>
<svg xmlns="http://www.w3.org/2000/svg" width="78" height="70" viewBox="0 0 78 70" fill="none">
  <path d="M50.3189 27.0454C42.7546 27.0454 35.2803 27.0454 27.8061 27.0454C26.9956 21.192 27.716 16.4493 32.4287 13.0574C36.7211 16.2092 41.1036 16.2692 45.4861 13.1174C49.4784 15.6088 51.0693 20.1714 50.3189 27.0454Z" fill="#3EB7FD"></path>
  <path d="M0.641736 69.97C0.311548 64.4168 0.101428 59.0438 5.53453 55.5618C9.13658 57.723 12.7687 57.9631 16.4908 55.8619C16.791 55.6818 17.4513 55.8619 17.7815 56.1021C19.6426 57.5429 21.1735 59.3739 21.5337 61.7153C21.9839 64.3868 21.9839 67.1484 22.164 69.97C14.7798 69.97 7.7558 69.97 0.641736 69.97Z" fill="#3EB7FD"></path>
  <path d="M56.1415 69.9699C56.1415 67.3584 55.8413 64.8069 56.2316 62.4056C56.5317 60.6946 57.5823 58.9836 58.6629 57.5428C60.2238 55.4416 60.434 55.5617 62.7753 56.5222C65.6569 57.6929 68.5386 57.6328 71.3002 56.132C72.2307 55.6217 72.801 55.7418 73.5214 56.4021C75.9828 58.6234 77.3636 61.325 77.3936 64.6869C77.3936 66.4279 77.3936 68.1689 77.3936 69.9999C70.2496 69.9699 63.2255 69.9699 56.1415 69.9699Z" fill="#3EB7FD"></path>
  <path d="M25.6172 59.1037C24.8368 57.7829 24.1164 56.5222 23.3359 55.1714C26.0075 53.3704 28.679 51.5093 31.3805 49.7383C32.131 49.228 32.4311 48.7478 32.3411 47.8172C32.131 44.9956 33.3917 42.9244 35.763 41.4536C36.1833 41.1835 36.6035 40.4931 36.6035 39.9828C36.6936 37.2812 36.6335 34.6097 36.6335 31.7881C38.1644 31.7881 39.5752 31.7881 41.1661 31.7881C41.1661 34.5196 41.1061 37.2212 41.1961 39.8927C41.2262 40.433 41.6464 41.1835 42.1267 41.4836C44.498 42.9845 45.7287 45.0857 45.5186 47.8773C45.4586 48.8378 45.7888 49.3181 46.5392 49.7984C49.2107 51.5394 51.8222 53.3704 54.5237 55.1714C53.7733 56.4922 53.0829 57.7229 52.3025 59.1337C49.5709 57.3027 46.8394 55.5016 44.1678 53.6105C43.2973 52.9802 42.637 52.8601 41.6464 53.3704C39.7553 54.361 37.7442 54.2409 35.8831 53.2503C35.1327 52.8301 34.6524 52.9502 34.022 53.3704C31.2605 55.2915 28.4389 57.1826 25.6172 59.1037ZM38.9749 45.2358C37.8042 45.2358 36.8737 46.1063 36.8436 47.2769C36.8136 48.5076 37.7742 49.4682 38.9749 49.4382C40.1155 49.4081 41.0461 48.4776 41.0461 47.337C41.0461 46.1963 40.1155 45.2358 38.9749 45.2358Z" fill="#F670C7"></path>
  <path d="M44.4368 5.4331C44.4668 8.46483 42.0954 10.8962 39.0937 10.9563C36.092 11.0163 33.5406 8.49485 33.5706 5.4331C33.5706 2.43139 36.032 0 39.0037 0C42.0054 0 44.4368 2.40137 44.4368 5.4331Z" fill="#3EB7FD"></path>
  <path d="M66.7391 41.8738C69.7708 41.9038 72.1422 44.3052 72.1121 47.3369C72.0821 50.3687 69.6807 52.74 66.679 52.74C63.6173 52.74 61.1559 50.2486 61.2159 47.1868C61.276 44.2152 63.7073 41.8438 66.7391 41.8738Z" fill="#3EB7FD"></path>
  <path d="M11.239 41.874C14.2708 41.874 16.7021 44.2454 16.7322 47.2471C16.7622 50.3088 14.3008 52.7702 11.239 52.7702C8.23731 52.7702 5.83594 50.3389 5.83594 47.3371C5.83594 44.2754 8.20729 41.904 11.239 41.874Z" fill="#3EB7FD"></path>
</svg>
