<?xml version="1.0" encoding="UTF-8"?>
<svg xmlns="http://www.w3.org/2000/svg" width="83" height="70" viewBox="0 0 83 70" fill="none">
  <path d="M22.4961 70C22.4961 50.9522 22.4961 32.1593 22.4961 13.2571C42.3452 13.2571 62.1215 13.2571 82.0434 13.2571C82.0799 13.8034 82.1163 14.3861 82.1163 14.9688C82.1163 31.0667 82.1163 47.1645 82.1163 63.2623C82.1163 67.742 79.8946 70 75.4149 70C58.3702 70 41.289 70 24.2443 70C23.7344 70 23.1881 70 22.4961 70ZM73.2661 61.1499C73.2661 53.3559 73.2661 45.6712 73.2661 38.0594C64.9987 38.0594 56.8405 38.0594 48.828 38.0594C48.828 45.8169 48.828 53.4652 48.828 61.1499C57.0226 61.1499 65.0715 61.1499 73.2661 61.1499ZM73.3025 20.5412C58.698 20.5412 44.2391 20.5412 29.853 20.5412C29.853 24.4381 29.853 28.2259 29.853 31.9772C44.4212 31.9772 58.8072 31.9772 73.3025 31.9772C73.3025 28.153 73.3025 24.4017 73.3025 20.5412ZM29.7438 61.1135C34.187 61.1135 38.4482 61.1135 42.673 61.1135C42.673 53.3195 42.673 45.6712 42.673 38.0594C38.2661 38.0594 34.0049 38.0594 29.7438 38.0594C29.7438 45.7805 29.7438 53.3559 29.7438 61.1135Z" fill="#3EB7FD"></path>
  <path d="M0.53642 13.2207C6.94641 13.2207 13.065 13.2207 19.3293 13.2207C19.3293 32.0865 19.3293 50.9522 19.3293 69.9273C14.704 69.9273 10.0421 70.1094 5.38033 69.8544C2.39386 69.6723 0.53642 66.9772 0.5 63.5901C0.5 51.3893 0.5 39.1884 0.5 26.9876C0.53642 22.4715 0.53642 17.9189 0.53642 13.2207Z" fill="#3EB7FD"></path>
  <path d="M0.57449 10.1249C0.57449 8.44953 0.465229 6.88345 0.610911 5.31738C0.793013 2.47659 3.0875 0.254943 5.92829 0.0364204C6.54743 0 7.13016 0 7.74931 0C30.1114 0 52.51 0 74.8721 0C80.0802 0 82.1198 2.03954 82.1198 7.28408C82.1198 8.19459 82.1198 9.06868 82.1198 10.1249C54.9501 10.1249 27.8898 10.1249 0.57449 10.1249Z" fill="#F670C7"></path>
</svg>
