<?xml version="1.0" encoding="UTF-8"?>
<svg xmlns="http://www.w3.org/2000/svg" width="68" height="71" viewBox="0 0 68 71" fill="none">
  <path d="M63.3769 45.886C63.3769 45.3036 63.3769 44.8086 63.3769 44.3427C63.3769 34.5878 63.3769 24.833 63.3769 15.0782C63.3769 13.1563 63.3769 13.1563 61.455 13.1563C53.5347 13.1563 45.6435 13.1563 37.7232 13.1563C37.199 13.1563 36.6749 13.1563 36.1799 13.1563C35.6848 11.5839 36.9661 9.31265 34.2289 8.87586C34.6657 8.84675 35.1316 8.81763 35.5684 8.81763C44.304 8.81763 53.0397 8.81763 61.7753 8.81763C65.6773 8.81763 67.6865 10.7977 67.6865 14.7288C67.6865 26.0851 67.6865 37.4415 67.6865 48.827C67.6865 52.758 65.6773 54.7672 61.7753 54.7672C56.6213 54.7672 51.4964 54.7672 46.3423 54.7672C45.8182 54.7672 45.2941 54.7672 44.7117 54.7672C44.7117 57.5626 44.7117 60.1542 44.7117 62.9787C46.6918 62.9787 48.6719 62.9787 50.6519 62.9787C51.2343 62.9787 51.8167 62.9787 52.3991 62.9787C56.0389 63.0661 58.019 65.8615 56.8251 69.2684C56.7087 69.5596 56.3301 69.8508 56.0098 69.9673C55.6604 70.0838 55.2527 69.9964 54.8451 69.9964C40.9553 69.9964 27.0948 69.9964 13.2051 69.9964C11.2832 69.9964 11.225 69.9382 11.225 68.0746C11.1959 64.3182 12.5062 62.9787 16.2334 62.9787C18.5921 62.9787 20.9507 62.9787 23.5131 62.9787C23.5131 61.5228 23.5131 60.2416 23.5131 58.9312C23.5131 57.6209 23.5131 56.3105 23.5131 54.8546C22.9016 54.8255 22.3775 54.7672 21.8825 54.7672C16.7284 54.7672 11.6035 54.7672 6.44948 54.7672C2.43108 54.709 0.421875 52.7289 0.421875 48.7105C0.421875 37.2959 0.421875 25.8813 0.421875 14.4958C0.421875 10.5356 2.98434 8.35173 7.0901 8.9341C6.39124 9.25441 5.83799 9.51648 5.28473 9.74943C4.20733 19.679 4.9353 29.6085 4.73147 39.538C4.70235 41.6055 4.73147 43.702 4.73147 45.886C24.2994 45.886 43.7216 45.886 63.3769 45.886Z" fill="#3EB7FD"></path>
  <path d="M28.375 23.4353C28.2876 23.4062 28.1712 23.4062 28.1129 23.3479C26.3949 22.0376 25.0263 23.5809 23.5413 23.9594C23.3083 24.0177 23.0171 24.4253 22.988 24.7165C22.6968 26.4637 21.4156 26.1142 20.2217 26.2307C19.057 26.3181 18.6202 25.7648 18.2999 24.7748C17.9504 23.6974 14.8638 22.5035 13.8738 23.115C12.3305 24.0468 11.8937 22.6491 11.0493 22.0085C10.2339 21.397 10.2048 20.7855 10.6707 19.9119C11.2822 18.7472 10.0301 15.7188 8.74888 15.3694C7.35117 15.0199 7.61324 14.059 7.61324 13.1272C7.61324 12.1954 7.38029 11.2345 8.74888 10.8559C10.1175 10.4774 11.3113 7.47815 10.6125 6.19692C9.91363 4.91569 10.8746 4.47891 11.4861 3.83829C12.0975 3.19768 12.5635 2.38235 13.7573 3.05208C15.0968 3.80917 17.9796 2.55706 18.4455 1.072C18.9114 -0.413064 20.0179 0.140195 20.9497 0.0819571C21.765 -0.00539951 22.493 -0.0636373 22.8424 1.072C23.3083 2.64442 26.162 3.72182 27.7053 3.02296C28.3459 2.73178 28.8118 2.70266 29.3359 3.28503C30.2969 4.33331 31.6363 5.11952 30.4133 6.89578C29.9765 7.50727 31.6363 10.6812 32.4516 10.8268C34.0241 11.118 33.7038 12.2536 33.762 13.3019C33.8202 14.292 33.7329 15.0491 32.5681 15.3985C31.1995 15.8062 30.1513 18.6889 30.7045 20.1157C31.0248 21.0476 29.4233 23.4644 28.375 23.4353ZM20.6294 6.95401C17.1642 6.95401 14.4562 9.63295 14.4562 13.1272C14.4853 16.505 17.1934 19.2422 20.542 19.2422C23.9489 19.2713 26.7443 16.4468 26.7443 13.0399C26.7443 9.69119 24.0072 6.98313 20.6294 6.95401Z" fill="#F670C7"></path>
  <path d="M55.8643 33.3647C55.8643 36.5969 55.8352 39.8582 55.8934 43.0904C55.9225 44.1678 55.544 44.5463 54.4666 44.5463C50.9432 44.6046 50.9432 44.6337 50.9432 41.023C50.9432 35.3157 50.9723 29.5792 50.9141 23.8719C50.9141 22.6781 51.2344 22.2413 52.4574 22.2704C56.534 22.3869 55.806 21.7754 55.8643 25.6191C55.8934 28.2398 55.8643 30.8022 55.8643 33.3647Z" fill="#3EB7FD"></path>
  <path d="M55.5137 18.4269C55.106 18.7764 54.5527 19.5917 53.8248 19.8246C51.932 20.4653 46.8654 24.8622 46.2247 26.6676C45.788 27.9779 44.0991 28.7059 43.1964 27.7741C41.9443 26.4929 40.3427 26.4929 38.8577 26.0852C36.5282 25.4446 34.4607 25.9687 32.5971 27.512C31.5488 28.3856 30.4132 29.1427 29.4232 30.0454C28.8117 30.5986 28.3166 31.3266 27.909 32.0255C27.3557 32.9864 26.5986 33.4523 25.5212 33.2484C24.5021 33.0446 23.745 32.3166 23.9197 31.3266C24.0653 30.5695 24.7932 29.3465 25.3465 29.3174C27.0645 29.23 28.0254 28.0653 29.1902 27.2208C30.0638 26.6093 30.9373 25.9687 31.6944 25.2408C32.2477 24.7166 32.7427 24.0469 33.1212 23.348C33.7327 22.1542 35.2469 21.4553 36.1205 22.3289C37.3435 23.581 38.8577 23.581 40.3136 23.9886C42.7596 24.6875 44.7979 24.1634 46.5742 22.358C47.6224 21.2806 48.8454 20.407 49.8937 19.3296C50.5052 18.7181 50.9711 17.9319 51.3497 17.1457C51.8738 16.0974 52.6309 15.5442 53.7957 15.7771C54.8731 16.0392 55.3972 16.8254 55.5137 18.4269Z" fill="#3EB7FD"></path>
  <path d="M37.5478 36.5971C37.5478 38.8392 37.5187 41.0523 37.577 43.2944C37.6061 44.2553 37.2275 44.5757 36.2957 44.5757C31.8114 44.4883 32.685 45.0998 32.6267 41.0523C32.5685 37.4706 32.6559 33.889 32.5976 30.2783C32.5685 29.0844 33.0053 28.7932 34.1118 28.7932C37.5478 28.7932 37.5478 28.7641 37.5478 32.2292C37.5478 33.6852 37.5478 35.1411 37.5478 36.5971Z" fill="#3EB7FD"></path>
  <path d="M46.6628 38.3442C46.6628 39.9749 46.6337 41.6347 46.6628 43.2653C46.6919 44.1971 46.3425 44.5757 45.3816 44.5465C41.0137 44.4592 41.8 45.1289 41.7417 41.0232C41.7126 38.5189 41.7708 35.9856 41.7126 33.4814C41.6835 32.4913 42.0329 32.0837 43.0521 32.1128C47.3325 32.2001 46.5463 31.5595 46.6337 35.5779C46.6919 36.5097 46.6628 37.4124 46.6628 38.3442Z" fill="#3EB7FD"></path>
  <path d="M23.5129 40.8192C23.5129 40.6154 23.4838 40.4406 23.5129 40.2368C23.6003 39.2468 23.4256 37.5579 23.8332 37.4123C24.9689 36.9755 26.3666 37.092 27.6478 37.1502C27.9099 37.1502 28.3758 37.7908 28.4049 38.1402C28.4923 39.9165 28.434 41.7219 28.434 43.4981C28.434 43.5855 28.4631 43.702 28.4049 43.7893C27.4149 45.3908 25.8716 44.2552 24.6195 44.5464C23.8624 44.7211 23.4838 44.2843 23.5129 43.469C23.5421 42.5663 23.5129 41.6927 23.5129 40.8192Z" fill="#3EB7FD"></path>
</svg>
